name Walk7.mot
datacolumns 19
datarows 17
range 1.65000000 1.73000000
endheader

                time	   L_ground_force_vx	   L_ground_force_vy	   L_ground_force_vz	   L_ground_force_px	   L_ground_force_py	   L_ground_force_pz	   R_ground_force_vx	   R_ground_force_vy	   R_ground_force_vz	   R_ground_force_px	   R_ground_force_py	   R_ground_force_pz	   L_ground_torque_x	   L_ground_torque_y	   L_ground_torque_z	   R_ground_torque_x	   R_ground_torque_y	   R_ground_torque_z	
          1.65000000	         19.02272644	        538.47792991	         35.63951982	         -0.32057402	          0.00000000	         -0.06655617	         -0.00404149	          0.16168765	          0.00811026	          0.00009866	          0.00000000	          0.00006952	          0.00000000	         -0.55500396	          0.00000000	          0.00000000	          0.00008106	          0.00000000	
          1.65500000	         20.62551848	        546.49871217	         35.92342457	         -0.31895031	          0.00000000	         -0.06666916	         -0.00772927	          0.21729511	          0.00903978	          0.00012442	          0.00000000	          0.00008725	          0.00000000	         -0.58297297	          0.00000000	          0.00000000	          0.00015636	          0.00000000	
          1.66000000	         22.26850843	        554.96367196	         36.29398548	         -0.31731761	          0.00000000	         -0.06683042	         -0.01252669	          0.27720967	          0.00937440	          0.00014924	          0.00000000	          0.00010414	          0.00000000	         -0.60628297	          0.00000000	          0.00000000	          0.00025449	          0.00000000	
          1.66500000	         23.95115122	        563.81654667	         36.76493164	         -0.31567648	          0.00000000	         -0.06703456	         -0.01846279	          0.33645149	          0.00874008	          0.00016953	          0.00000000	          0.00011764	          0.00000000	         -0.62503833	          0.00000000	          0.00000000	          0.00037613	          0.00000000	
          1.67000000	         25.67656451	        573.00909990	         37.34553125	         -0.31403027	          0.00000000	         -0.06727374	         -0.02544245	          0.38733805	          0.00667303	          0.00018027	          0.00000000	          0.00012418	          0.00000000	         -0.63927989	          0.00000000	          0.00000000	          0.00051942	          0.00000000	
          1.67500000	         27.45182863	        582.49627365	         38.03923025	         -0.31238502	          0.00000000	         -0.06754028	         -0.03318861	          0.41891987	          0.00262674	          0.00017478	          0.00000000	          0.00011907	          0.00000000	         -0.64911468	          0.00000000	          0.00000000	          0.00067881	          0.00000000	
          1.68000000	         29.28795417	        592.22987529	         38.84308169	         -0.31074907	          0.00000000	         -0.06782679	         -0.04117474	          0.41650334	         -0.00400692	          0.00014467	          0.00000000	          0.00009640	          0.00000000	         -0.65494022	          0.00000000	          0.00000000	          0.00084365	          0.00000000	
          1.68500000	         31.19904873	        602.15572155	         39.74706588	         -0.30913245	          0.00000000	         -0.06812471	         -0.04855014	          0.36136849	         -0.01385713	          0.00007987	          0.00000000	          0.00004918	          0.00000000	         -0.65745113	          0.00000000	          0.00000000	          0.00099664	          0.00000000	
          1.69000000	         33.20094997	        612.21363136	         40.73372423	         -0.30754557	          0.00000000	         -0.06842353	         -0.05406359	          0.23082544	         -0.02750839	         -0.00003103	          0.00000000	         -0.00003053	          0.00000000	         -0.65765008	          0.00000000	          0.00000000	          0.00111230	          0.00000000	
          1.69500000	         35.31084082	        622.33641562	         41.77867068	         -0.30599857	          0.00000000	         -0.06871291	         -0.05599360	         -0.00120800	         -0.04540332	         -0.00020013	          0.00000000	         -0.00015106	          0.00000000	         -0.65679203	          0.00000000	          0.00000000	          0.00115548	          0.00000000	
          1.70000000	         37.54729480	        632.44839438	         42.85215060	         -0.30450231	          0.00000000	         -0.06898501	         -0.05209763	         -0.36288726	         -0.06770881	         -0.00043914	          0.00000000	         -0.00032038	          0.00000000	         -0.65606238	          0.00000000	          0.00000000	          0.00108032	          0.00000000	
          1.70500000	         39.93059514	        642.46490006	         43.92133829	         -0.30306874	          0.00000000	         -0.06923484	         -0.03959723	         -0.88212838	         -0.09414114	         -0.00075769	          0.00000000	         -0.00054491	          0.00000000	         -0.65648903	          0.00000000	          0.00000000	          0.00082987	          0.00000000	
          1.71000000	         42.48263736	        652.29412438	         44.95245180	         -0.30170981	          0.00000000	         -0.06945887	         -0.01522092	         -1.58303123	         -0.12374894	         -0.00116099	          0.00000000	         -0.00082783	          0.00000000	         -0.65887350	          0.00000000	          0.00000000	          0.00033698	          0.00000000	
          1.71500000	         45.22483205	        661.83501396	         45.91272396	         -0.30043598	          0.00000000	         -0.06965437	          0.02466818	         -2.48077272	         -0.15465702	         -0.00164670	          0.00000000	         -0.00116691	          0.00000000	         -0.66370474	          0.00000000	          0.00000000	         -0.00047319	          0.00000000	
          1.72000000	         48.17521652	        670.97254304	         46.77345797	         -0.29925458	          0.00000000	         -0.06981955	          0.08382814	         -3.57474364	         -0.18378089	         -0.00220102	          0.00000000	         -0.00155176	          0.00000000	         -0.67118800	          0.00000000	          0.00000000	         -0.00167818	          0.00000000	
          1.72500000	         51.34597860	        679.57570406	         47.51239717	         -0.29816889	          0.00000000	         -0.06995363	          0.16574263	         -4.83979344	         -0.20653073	         -0.00279398	          0.00000000	         -0.00196050	          0.00000000	         -0.68119573	          0.00000000	          0.00000000	         -0.00335026	          0.00000000	
          1.73000000	         54.74201358	        687.49982695	         48.11442263	         -0.29717783	          0.00000000	         -0.07005678	          0.27303770	         -6.21560398	         -0.21653532	         -0.00337404	          0.00000000	         -0.00235611	          0.00000000	         -0.69350395	          0.00000000	          0.00000000	         -0.00554448	          0.00000000	
